<svg width="24" height="24" viewBox="0 0 24 24" fill="none" xmlns="http://www.w3.org/2000/svg">
<path d="M15.0689 23C14.7596 22.9981 14.4565 22.9132 14.1913 22.7542C13.9261 22.5951 13.7085 22.3678 13.5613 22.0959L9.41552 14.6676C9.39485 14.6274 9.36357 14.5935 9.32507 14.5697L1.89278 10.4487C1.59809 10.2834 1.35764 10.0363 1.20052 9.73722C1.04339 9.43819 0.976322 9.10006 1.00742 8.76373C1.03852 8.4274 1.16646 8.10728 1.37575 7.84209C1.58505 7.5769 1.86674 7.378 2.18676 7.26945L20.6921 1.09175C21.0008 0.987614 21.3326 0.971774 21.6499 1.04602C21.9672 1.12026 22.2574 1.28163 22.4878 1.51193C22.7182 1.74223 22.8797 2.0323 22.954 2.34941C23.0282 2.66653 23.0124 2.99809 22.9082 3.30668L16.7272 21.8021C16.6213 22.127 16.4217 22.4133 16.1535 22.6251C15.8852 22.8369 15.5603 22.9647 15.2196 22.9925L15.0689 23ZM21.167 2.51563L2.66918 8.68581C2.6231 8.69925 2.58208 8.72614 2.55137 8.76302C2.52067 8.7999 2.50167 8.8451 2.49682 8.89283C2.49196 8.94056 2.50146 8.98866 2.52411 9.03096C2.54676 9.07327 2.58152 9.10786 2.62395 9.1303L10.0562 13.2588C10.3414 13.4169 10.5765 13.6518 10.7346 13.9369L14.8654 21.3652C14.8866 21.4078 14.9204 21.4429 14.9621 21.4658C15.0039 21.4887 15.0517 21.4982 15.099 21.4932C15.147 21.4906 15.193 21.4733 15.2307 21.4437C15.2685 21.414 15.2962 21.3735 15.3101 21.3275L21.4836 2.82452C21.4988 2.78171 21.5012 2.73539 21.4905 2.69123C21.4798 2.64707 21.4564 2.60699 21.4233 2.5759C21.3916 2.54355 21.3515 2.52073 21.3075 2.51007C21.2635 2.49942 21.2174 2.50134 21.1745 2.51563H21.167Z" fill="white"/>
<path d="M21.418 1.51311L9.37744 13.5472L10.4434 14.6127L22.484 2.57855L21.418 1.51311Z" fill="white"/>
</svg>
