<svg width="24" height="24" viewBox="0 0 24 24" fill="none" xmlns="http://www.w3.org/2000/svg">
<path d="M12.5 2C8.8373 2 5.85 5.0016 5.85 8.68182C5.85 10.9824 7.01895 13.0257 8.78906 14.2301C5.40098 15.6918 3 19.07 3 23H4.9C4.9 18.7717 8.2918 15.3636 12.5 15.3636C16.7082 15.3636 20.1 18.7717 20.1 23H22C22 19.07 19.599 15.6918 16.2109 14.2301C17.9811 13.0257 19.15 10.9824 19.15 8.68182C19.15 5.0016 16.1627 2 12.5 2ZM12.5 3.90909C15.1348 3.90909 17.25 6.03445 17.25 8.68182C17.25 11.3292 15.1348 13.4545 12.5 13.4545C9.86523 13.4545 7.75 11.3292 7.75 8.68182C7.75 6.03445 9.86523 3.90909 12.5 3.90909Z" fill="white"/>
</svg>
